<svg xmlns="http://www.w3.org/2000/svg" xmlns:xlink="http://www.w3.org/1999/xlink" width="48.368" height="50" viewBox="0 0 48.368 50">
  <defs>
    <linearGradient id="linear-gradient" x1="0.5" x2="0.5" y2="1" gradientUnits="objectBoundingBox">
      <stop offset="0" stop-color="#e04e00"/>
      <stop offset="1" stop-color="#8a3000"/>
    </linearGradient>
  </defs>
  <g id="noun-headset-1094071" transform="translate(-145.602 -65.52)">
    <path id="Path_48463" data-name="Path 48463" d="M188.03,83.8a18.277,18.277,0,0,0-36.554,0,5.85,5.85,0,0,0-5.874,5.874v8.486a5.85,5.85,0,0,0,5.874,5.874H158V83.8h-2.611a14.36,14.36,0,1,1,28.721,0H181.5v20.235h3.459a4.484,4.484,0,0,1-4.112,2.611h-3.264a6.781,6.781,0,1,0,.065,3.982h3.264a8.534,8.534,0,0,0,8.29-6.658,5.82,5.82,0,0,0,4.765-5.744V89.736a6,6,0,0,0-5.94-5.94Zm-33.943,16.384h-2.611a1.923,1.923,0,0,1-1.958-1.958V89.737a1.924,1.924,0,0,1,1.958-1.958h2.611ZM171.059,111.6A2.937,2.937,0,1,1,174,108.666,2.967,2.967,0,0,1,171.059,111.6Zm18.93-13.381a1.923,1.923,0,0,1-1.958,1.958h-2.611v-12.4h2.611a1.923,1.923,0,0,1,1.958,1.958Z" transform="translate(0 0)" fill="url(#linear-gradient)"/>
  </g>
</svg>
