<svg xmlns="http://www.w3.org/2000/svg" xmlns:xlink="http://www.w3.org/1999/xlink" width="70.8" height="38.729" viewBox="0 0 70.8 38.729">
  <defs>
    <linearGradient id="linear-gradient" x1="0.5" x2="0.5" y2="1" gradientUnits="objectBoundingBox">
      <stop offset="0" stop-color="#e04e00"/>
      <stop offset="1" stop-color="#8a3000"/>
    </linearGradient>
  </defs>
  <path id="svg-path" d="M29.848,20.346a1.738,1.738,0,0,0,1.232,2.969,1.77,1.77,0,0,0,1.231-.507L36.8,18.319c.029-.044.072-.072.1-.118a.575.575,0,0,0,.044-.072A.26.26,0,0,1,37,18.058l.044-.087c.014-.029.029-.044.044-.073l.044-.087c.014-.029.029-.044.029-.072a.2.2,0,0,1,.029-.087c.015-.029.014-.058.029-.072a.188.188,0,0,0,.014-.087c0-.029.015-.058.015-.087s.014-.058.014-.1.015-.044.015-.073a1.428,1.428,0,0,0,0-.347.129.129,0,0,0-.015-.073c0-.029-.014-.058-.014-.1s-.015-.058-.015-.087-.014-.058-.014-.087a.109.109,0,0,0-.029-.072c-.014-.014-.015-.058-.029-.087s-.029-.044-.029-.073l-.044-.086c-.014-.029-.029-.044-.044-.073L37,16.054a.248.248,0,0,0-.058-.072c-.014-.029-.028-.044-.044-.072s-.072-.073-.1-.118l-4.273-4.265a1.741,1.741,0,1,0-2.462,2.462l1.29,1.288H1.738a1.738,1.738,0,0,0,0,3.477h29.6ZM67.673,8.892a10.264,10.264,0,0,0-7.66-3.215H52.728V1.738A1.743,1.743,0,0,0,50.99,0h-34.7a1.744,1.744,0,0,0-1.738,1.738V7.786H7.787a1.738,1.738,0,1,0,0,3.476H16.3A1.743,1.743,0,0,0,18.04,9.524V3.476H49.267v27.24H32.9a1.075,1.075,0,0,0-.218.015,5.827,5.827,0,0,0-10.833.029,1.668,1.668,0,0,0-.376-.044H18.045V24.648a1.744,1.744,0,0,0-1.738-1.738H7.787a1.738,1.738,0,1,0,0,3.476h6.762v6.058a1.744,1.744,0,0,0,1.738,1.738h5.285a5.835,5.835,0,0,0,11.382,0h20.83a5.835,5.835,0,0,0,11.382,0h3.881a1.743,1.743,0,0,0,1.738-1.738V18a13.172,13.172,0,0,0-3.113-9.109Zm-40.4,26.371a2.36,2.36,0,1,1,2.36-2.36A2.36,2.36,0,0,1,27.269,35.263Zm32.208,0a2.36,2.36,0,1,1,2.36-2.36,2.36,2.36,0,0,1-2.36,2.36Zm7.835-4.548H64.878a5.822,5.822,0,0,0-10.8,0H52.742V9.153h7.285c4.561,0,7.284,3.316,7.284,8.862v12.7Z" transform="translate(0.001)" fill="url(#linear-gradient)"/>
</svg>
