<svg xmlns="http://www.w3.org/2000/svg" xmlns:xlink="http://www.w3.org/1999/xlink" width="45.34" height="46" viewBox="0 0 45.34 46">
  <defs>
    <linearGradient id="linear-gradient" x1="0.5" x2="0.5" y2="1" gradientUnits="objectBoundingBox">
      <stop offset="0" stop-color="#e04e00"/>
      <stop offset="1" stop-color="#8a3000"/>
    </linearGradient>
  </defs>
  <path id="Union_97" data-name="Union 97" d="M19159.127,12528h-29.85a6.279,6.279,0,0,1-6.271-6.273v-14.638a6.276,6.276,0,0,1,6.271-6.27h4.912l7.809-17.581a2.108,2.108,0,0,1,1.916-1.238,8.364,8.364,0,0,1,8.365,8.361v6.275h9.732a6.276,6.276,0,0,1,6.262,7.212l-2.887,18.823a6.271,6.271,0,0,1-6.2,5.328Zm-21.484-24.649v20.468h21.541a2.1,2.1,0,0,0,2.07-1.778l2.885-18.822a2.1,2.1,0,0,0-2.1-2.4h-11.854a2.1,2.1,0,0,1-2.1-2.094v-8.364a4.17,4.17,0,0,0-1.221-2.956,4.3,4.3,0,0,0-1.687-1.031Zm-10.455,3.738v14.638a2.1,2.1,0,0,0,2.09,2.092h4.18V12505h-4.18A2.092,2.092,0,0,0,19127.188,12507.092Zm23.414,14.655a1.471,1.471,0,1,1,0-2.942,6.177,6.177,0,1,0-5.166-9.565l-.02.026a.691.691,0,0,0-.088.7.378.378,0,0,0,.33.185h.535a1.273,1.273,0,0,1,0,2.547h-4.828a1.275,1.275,0,0,1-1.27-1.269v-4.829a1.272,1.272,0,0,1,2.545,0v.577a.265.265,0,0,0,.166.276.215.215,0,0,0,.07.015c.121,0,.277-.125.463-.363a9.214,9.214,0,0,1,7.262-3.6,9.131,9.131,0,0,1,9.121,9.122,9.136,9.136,0,0,1-9.109,9.123Z" transform="translate(-19123.006 -12482.003)" fill="url(#linear-gradient)"/>
</svg>
